<?xml version="1.0" encoding="utf-8"?><svg version="1.1" id="Layer_1" xmlns="http://www.w3.org/2000/svg" xmlns:xlink="http://www.w3.org/1999/xlink" x="0px" y="0px" viewBox="0 0 117.91 122.88" style="enable-background:new 0 0 117.91 122.88" xml:space="preserve"><g><path d="M91.79,109.33l-3.01-0.54l-1.51,2.71c-0.01,0.02-0.02,0.04-0.04,0.05c-0.63,0.78-1.21,0.76-1.71,0.35 c-0.54-0.44-0.9-1.38-1.13-2l-0.09-0.23l-3.19-6.02c-0.1-0.19-0.03-0.42,0.16-0.51c0.02-0.01,0.04-0.02,0.05-0.02 c0.33-0.11,0.7-0.34,1.1-0.64c0.42-0.31,0.86-0.7,1.31-1.1c0.08-0.07,0.18-0.11,0.29-0.1c0.86,0.02,1.7-0.05,2.45-0.3 c0.74-0.25,1.42-0.69,2-1.43c0.13-0.17,0.37-0.2,0.53-0.07c0.04,0.04,0.08,0.08,0.1,0.13l3.69,7.12l0.32,0.69 c0.01,0.02,0.02,0.04,0.02,0.06c0.15,0.53,0.18,0.99,0,1.34c-0.2,0.39-0.59,0.59-1.25,0.54C91.86,109.35,91.82,109.34,91.79,109.33 L91.79,109.33z M28.41,98.96c5.66-7.43,10.49-4.05,17.25,0.67c0.34,0.24,0.68,0.47,1.02,0.71c0.97,0.67,1.98,0.55,3,0.05 c1.1-0.55,2.21-1.53,3.31-2.5l0.02-0.01c0.99-0.87,1.96-1.73,3-2.39c0.18-0.11,0.41-0.06,0.52,0.12l1.54,2.42 c0.11,0.18,0.06,0.41-0.12,0.52c-0.8,0.51-1.67,1.28-2.56,2.07l-0.02,0.02c-1.54,1.36-3.12,2.75-4.86,3.47 c-1.8,0.74-3.74,0.74-5.9-0.76l-1.03-0.72c-2.6-1.82-4.83-3.37-6.83-3.86c-1.92-0.46-3.67,0.09-5.44,2.41 c-0.13,0.17-0.37,0.2-0.53,0.07l-2.29-1.75C28.31,99.37,28.28,99.13,28.41,98.96L28.41,98.96z M90.58,3.91 c-0.66,0.75-1.18,1.51-1.57,2.26l0,0c-0.41,0.8-0.69,1.6-0.84,2.41c-0.17,0.9-0.2,1.82-0.1,2.76c0.1,0.95,0.32,1.93,0.65,2.93 l0.67,2.05c0.06,0.2-0.04,0.41-0.24,0.48c-0.04,0.01-0.08,0.02-0.12,0.02l-70.45,0v93.23c0,0.03,0,0.05-0.01,0.07 c0.01,1.64,0.18,3.05,0.54,4.23c0.35,1.17,0.87,2.12,1.58,2.81c0.68,0.67,1.57,1.14,2.67,1.41c1.13,0.27,2.49,0.32,4.08,0.14 c20.29-1.77,50.07-0.02,71.4-0.02V13.18c0-0.02,0-0.05,0.01-0.07l0-0.01c0.09-1.99-0.09-3.56-0.48-4.79 c-0.38-1.2-0.98-2.07-1.74-2.69C95.9,5.03,95,4.62,93.96,4.36C92.95,4.09,91.81,3.96,90.58,3.91L90.58,3.91z M14.68,16.82H0.38 C0.17,16.82,0,16.65,0,16.44l0.06-1.63c0.06-1.67,0.26-3.26,0.63-4.74C1.06,8.58,1.6,7.2,2.34,5.94C3.11,4.65,4.07,3.5,5.28,2.52 c1.2-0.98,2.63-1.78,4.34-2.4c0.02-0.01,0.04-0.01,0.06-0.02l0.53-0.1C10.22,0,10.25,0,10.27,0l83.2,0c0.2,0,0.37,0.16,0.38,0.36 c0.9,0.16,1.75,0.39,2.55,0.71c0.98,0.38,1.88,0.89,2.68,1.54c1.24,1.01,2.21,2.35,2.84,4.1c0.62,1.71,0.91,3.83,0.8,6.43l0,0.04 v92.62h10.72c0.15,0,0.28,0.01,0.39,0.02c0.03-0.01,0.06-0.01,0.09-0.01l0.09,0c0.84,0,1.45-0.01,1.96,0.11 c0.56,0.13,0.98,0.39,1.38,0.9c0.61,0.79,0.58,1.44,0.52,2.62l0,0.02c-0.02,0.34-0.04,0.77-0.04,1.46c0,2.81-0.49,5.03-1.39,6.77 c-0.92,1.75-2.25,3-3.92,3.85c-1.46,0.74-3.16,1.14-5.04,1.29c-1.85,0.14-3.89,0.04-6.06-0.22H27.72 c-2.14,0.23-4.02,0.11-5.64-0.33c-1.64-0.45-3.02-1.23-4.14-2.34c-1.1-1.09-1.92-2.48-2.46-4.14c-0.53-1.62-0.79-3.51-0.79-5.66 c0-0.02-0.01-0.05-0.01-0.08V16.82L14.68,16.82z M84.35,7.85c0.15-0.78,0.37-1.54,0.68-2.3c0.22-0.56,0.49-1.11,0.81-1.66H10.6 C9.46,4.34,8.49,4.9,7.69,5.57c-0.82,0.68-1.48,1.47-2,2.35c-0.45,0.76-0.8,1.6-1.07,2.5c-0.23,0.79-0.4,1.63-0.52,2.51h80.27 c-0.14-0.78-0.22-1.55-0.24-2.32C84.11,9.68,84.18,8.76,84.35,7.85L84.35,7.85z M102.73,109.69v9.15c1.6,0.16,3.09,0.21,4.42,0.11 c1.4-0.11,2.62-0.38,3.62-0.89c0.99-0.5,1.78-1.29,2.32-2.43c0.56-1.17,0.86-2.72,0.86-4.72c0-0.28,0.01-0.58,0.02-0.88l0.02-0.39 c-0.06,0.03-0.13,0.05-0.2,0.05l-0.02,0c-0.08,0-0.15,0.01-0.22,0L102.73,109.69L102.73,109.69z M29.85,32.5 c-0.54,0-1.02-0.22-1.37-0.57l0,0c-0.35-0.35-0.57-0.84-0.57-1.37c0-0.54,0.22-1.02,0.57-1.37l0,0c0.35-0.35,0.84-0.57,1.37-0.57 h45.18c0.54,0,1.02,0.22,1.37,0.57l0,0c0.35,0.35,0.57,0.84,0.57,1.37c0,0.54-0.22,1.02-0.57,1.37l0,0 c-0.35,0.35-0.84,0.57-1.37,0.57H29.85L29.85,32.5z M29.85,48.51c-0.54,0-1.03-0.22-1.38-0.57c-0.35-0.35-0.57-0.84-0.57-1.37 c0-0.54,0.22-1.02,0.57-1.37c0.35-0.35,0.84-0.57,1.38-0.57h55.42c0.54,0,1.03,0.22,1.38,0.57c0.35,0.35,0.57,0.84,0.57,1.37 c0,0.54-0.22,1.02-0.57,1.37c-0.35,0.35-0.84,0.57-1.38,0.57H29.85L29.85,48.51z M29.85,64.54c-0.54,0-1.02-0.22-1.37-0.57l0,0 c-0.35-0.35-0.57-0.84-0.57-1.37c0-0.54,0.22-1.02,0.57-1.38c0.35-0.35,0.84-0.57,1.38-0.57h44.29c0.54,0,1.02,0.22,1.37,0.57l0,0 c0.35,0.35,0.57,0.84,0.57,1.37c0,0.54-0.22,1.02-0.57,1.37l0,0c-0.35,0.35-0.84,0.57-1.37,0.57H29.85L29.85,64.54z M29.85,80.58 c-0.53,0-1.02-0.22-1.37-0.57c-0.35-0.35-0.57-0.84-0.57-1.38c0-0.54,0.22-1.03,0.57-1.38c0.35-0.35,0.84-0.57,1.37-0.57h22.92 c0.53,0,1.02,0.22,1.37,0.57c0.35,0.35,0.57,0.84,0.57,1.38c0,0.54-0.22,1.03-0.57,1.38c-0.35,0.35-0.84,0.57-1.37,0.57H29.85 L29.85,80.58z M79.59,76.11c0.36-0.02,0.68,0.04,0.98,0.14c0.29,0.1,0.56,0.25,0.84,0.42c0.28,0.18,0.57,0.42,0.88,0.69l0.02,0.02 c0.39,0.33,0.82,0.7,1.3,0.97c0.39,0.22,0.97,0.24,1.58,0.27c1.15,0.04,2.4,0.09,3.23,1.32l0,0c0.71,1.07,0.77,1.88,0.82,2.69 l0.01,0.09c0.02,0.39,0.07,0.76,0.21,1.16c0.14,0.41,0.38,0.85,0.78,1.39h0c0.75,0.99,1.2,1.83,1.37,2.6 c0.18,0.81,0.06,1.54-0.35,2.28l-0.01,0.02c-0.31,0.53-0.76,0.92-1.15,1.25c-0.29,0.25-0.55,0.47-0.63,0.65 c-0.21,0.49-0.22,0.94-0.22,1.41c-0.01,0.64-0.02,1.3-0.44,2.14l-0.01,0.02c-0.27,0.52-0.61,0.96-1.02,1.31 c-0.42,0.36-0.91,0.63-1.47,0.81c-0.5,0.16-0.96,0.13-1.41,0.1c-0.37-0.03-0.71-0.05-0.97,0.06l-0.03,0.01 c-0.54,0.23-1.03,0.63-1.5,1c-0.52,0.42-1.01,0.81-1.57,0.99l0,0c-0.41,0.13-0.82,0.19-1.23,0.19c-0.41,0-0.82-0.06-1.23-0.19 l-0.02-0.01c-0.55-0.17-1.04-0.57-1.56-0.99c-0.47-0.38-0.97-0.78-1.52-1.01c-0.26-0.11-0.6-0.08-0.97-0.06 c-0.44,0.03-0.91,0.06-1.42-0.1l-0.03-0.01c-0.55-0.18-1.03-0.45-1.45-0.8c-0.41-0.36-0.76-0.8-1.02-1.33 c-0.42-0.84-0.43-1.5-0.44-2.14c-0.01-0.47-0.01-0.92-0.22-1.41l-0.01-0.01c-0.09-0.19-0.35-0.41-0.64-0.66 c-0.4-0.34-0.85-0.72-1.15-1.25l-0.02-0.03c-0.41-0.73-0.52-1.45-0.34-2.26c0.17-0.77,0.63-1.61,1.38-2.6 c0.41-0.53,0.64-0.98,0.78-1.39c0.14-0.4,0.19-0.78,0.21-1.17l0.01-0.08c0.05-0.81,0.11-1.64,0.82-2.69l0.02-0.02 c0.82-1.21,2.06-1.25,3.2-1.29c0.61-0.02,1.2-0.05,1.59-0.27l0.01-0.01c0.47-0.27,0.9-0.63,1.29-0.97c0.31-0.27,0.6-0.52,0.9-0.7 c0.27-0.18,0.55-0.32,0.84-0.42C78.92,76.15,79.24,76.1,79.59,76.11L79.59,76.11z M84.25,83.45c-1.19-1.19-2.83-1.93-4.65-1.93 c-1.82,0-3.46,0.74-4.65,1.93c-1.19,1.19-1.93,2.83-1.93,4.65c0,1.82,0.74,3.46,1.93,4.65c1.19,1.19,2.83,1.93,4.65,1.93 c1.82,0,3.46-0.74,4.65-1.93c1.19-1.19,1.93-2.83,1.93-4.65C86.17,86.29,85.44,84.64,84.25,83.45L84.25,83.45z M70.42,108.79 l-3.01,0.54c-0.03,0.01-0.06,0.01-0.1,0.01c-0.66,0.05-1.05-0.15-1.25-0.54c-0.18-0.34-0.15-0.8,0-1.34l0.02-0.06l0.32-0.69 l3.69-7.12c0.02-0.05,0.06-0.09,0.1-0.13c0.17-0.13,0.4-0.1,0.53,0.07c0.57,0.73,1.25,1.17,2,1.43c0.76,0.26,1.59,0.32,2.45,0.3 c0.1-0.01,0.2,0.02,0.29,0.1c0.45,0.4,0.89,0.79,1.31,1.1c0.4,0.3,0.77,0.53,1.1,0.64l0.05,0.02c0.19,0.1,0.26,0.33,0.16,0.51 l-3.19,6.02l-0.09,0.23c-0.23,0.62-0.59,1.56-1.13,2c-0.5,0.4-1.07,0.43-1.71-0.35c-0.01-0.02-0.03-0.03-0.04-0.05L70.42,108.79 L70.42,108.79z"/></g></svg>