<svg version="1.1" viewBox="0 0 96 96" xmlns="http://www.w3.org/2000/svg" xmlns:xlink="http://www.w3.org/1999/xlink" id="Icons_Checklist_RTL" overflow="hidden"><style>
.MsftOfcThm_Accent2_Fill {
 fill:#0075A2; 
}
</style>
<path d=" M 23 14 L 73 14 L 73 82 L 23 82 L 23 14 Z M 17 88 L 79 88 L 79 8 L 17 8 L 17 88 Z" stroke="none" stroke-width="1" stroke-dasharray="" stroke-dashoffset="1" fill="#0075A2" fill-opacity="1"/><g><rect x="29" y="23" width="17" height="4" stroke="none" stroke-width="1" stroke-dasharray="" stroke-dashoffset="1" fill="#0075A2" fill-opacity="1"/><rect x="29" y="39" width="17" height="4" stroke="none" stroke-width="1" stroke-dasharray="" stroke-dashoffset="1" fill="#0075A2" fill-opacity="1"/><rect x="29" y="71" width="17" height="4" stroke="none" stroke-width="1" stroke-dasharray="" stroke-dashoffset="1" fill="#0075A2" fill-opacity="1"/><rect x="29" y="55" width="17" height="4" stroke="none" stroke-width="1" stroke-dasharray="" stroke-dashoffset="1" fill="#0075A2" fill-opacity="1"/></g><g><path d=" M 67 20.8 L 64.2 18 L 57.6 24.6 L 55 22 L 52.2 24.8 L 57.6 30.2 Z" stroke="none" stroke-width="1" stroke-dasharray="" stroke-dashoffset="1" fill="#0075A2" fill-opacity="1"/><path d=" M 67 36.8 L 64.2 34 L 57.6 40.6 L 55 38 L 52.2 40.8 L 57.6 46.2 Z" stroke="none" stroke-width="1" stroke-dasharray="" stroke-dashoffset="1" fill="#0075A2" fill-opacity="1"/><path d=" M 67 52.8 L 64.2 50 L 57.6 56.6 L 55 54 L 52.2 56.8 L 57.6 62.2 Z" stroke="none" stroke-width="1" stroke-dasharray="" stroke-dashoffset="1" fill="#0075A2" fill-opacity="1"/><path d=" M 67 68.6 L 64.2 65.8 L 57.6 72.4 L 55 69.8 L 52.2 72.6 L 57.6 78 Z" stroke="none" stroke-width="1" stroke-dasharray="" stroke-dashoffset="1" fill="#0075A2" fill-opacity="1"/></g></svg>