<svg id="Layer_1" data-name="Layer 1" xmlns="http://www.w3.org/2000/svg" viewBox="0 0 122.88 122.88"><title>private</title><path d="M61.44,0A61.46,61.46,0,1,1,18,18,61.21,61.21,0,0,1,61.44,0ZM74.7,53.72V50.46a14.29,14.29,0,0,0-3.93-9.9,12.75,12.75,0,0,0-18.66,0,14.25,14.25,0,0,0-3.93,9.9v3.26H74.7Zm-32.45,0V50.46a20.24,20.24,0,0,1,5.6-14,18.64,18.64,0,0,1,27.18,0,20.24,20.24,0,0,1,5.6,14v3.26h1.05a3.14,3.14,0,0,1,3.14,3.13V87.8a3.15,3.15,0,0,1-3.14,3.14H41.2a3.14,3.14,0,0,1-3.13-3.14V56.85a3.13,3.13,0,0,1,3.13-3.13h1ZM59,73.73,55.7,82.27H67.18l-3-8.65a6,6,0,1,0-5.2.11Zm39.17-49a51.89,51.89,0,1,0,15.19,36.68A51.72,51.72,0,0,0,98.13,24.76Z"/></svg>